# xmcd
#
# Track frame offsets:
# 150
# 20280
# 47320
# 66675
# 92043
# 112073
# 135423
# 161488
# 180583
# 200988
# 231160
#
# Disc length: 3393 seconds
#
#
# Revision: 0
# Processed by: cddbd v1.5.1PL0 Copyright (c) Steve Scherf et al.
# Submitted via: FreeRIP 2.942 
#
DISCID=960d3f0b
DTITLE=Daryl Stuermer - Another side of Genesis
DYEAR=1978
DGENRE=Country
TTITLE0=Follow you Follow Me
TTITLE1=Hold on My Heart
TTITLE2=Taking it all too Hard
TTITLE3=Throwing it all Away
TTITLE4=Since I Lost You
TTITLE5=Land of Confusion
TTITLE6=In too Deep
TTITLE7=Turn it on Again
TTITLE8=Man on the Corner
TTITLE9=No son of Mine
TTITLE10=Never a Time
EXTD=Producer by Daryl Stuemer 2000 Urban Island\nMusic
EXTT0=
EXTT1=
EXTT2=
EXTT3=
EXTT4=
EXTT5=
EXTT6=
EXTT7=
EXTT8=
EXTT9=
EXTT10=
PLAYORDER=
